<svg width="1024" height="1024" viewBox="0 0 1024 1024" fill="none" xmlns="http://www.w3.org/2000/svg">
<path d="M0 0V823.154C118.51 824.144 387.183 865.698 513.793 1024C623.728 914.315 744.36 869.105 842.901 848.162C819.572 582.42 695.952 349.061 514.323 194.74C514.146 194.956 513.97 195.172 513.793 195.389C509.6 191.583 505.35 187.67 501.005 183.669C500.948 183.616 500.89 183.563 500.832 183.51C409.026 108.648 303.108 53.6504 188.29 24.2686C137.517 13.534 78.3343 5.14715 8.75283 0.103409C5.83875 0.0527679 2.92111 0.0182721 0 0Z" fill="url(#paint0_linear_21_9)"/>
<path d="M842.738 846.318C819 581.341 695.532 348.703 514.323 194.74L513.793 195.389C513.197 194.847 512.599 194.304 512 193.758V191.375C512.665 191.981 513.329 192.586 513.991 193.187C641.038 37.4628 906.896 -0.48994 1024 0.0047529V821.195C1011.37 823.895 993.616 825.644 971.832 827.789L971.81 827.792C937.532 831.167 893.284 835.525 843.343 846.11L843.35 846.188C843.146 846.231 842.942 846.275 842.738 846.318Z" fill="url(#paint1_linear_21_9)"/>
<path d="M0 305.72V824.859C118.022 825.844 384.972 867.062 512.221 1023.75C504.293 679.244 289.626 391.43 0 305.72Z" fill="url(#paint2_linear_21_9)"/>
<defs>
<linearGradient id="paint0_linear_21_9" x1="1588.23" y1="1024.01" x2="-390.076" y2="-160.005" gradientUnits="userSpaceOnUse">
<stop stop-color="#8A9199"/>
<stop offset="1" stop-color="#F8F9FA" stop-opacity="0"/>
</linearGradient>
<linearGradient id="paint1_linear_21_9" x1="3.33464e-05" y1="512.361" x2="1971.59" y2="-1354.93" gradientUnits="userSpaceOnUse">
<stop stop-color="#0B0E14"/>
<stop offset="1" stop-color="#707A8C"/>
</linearGradient>
<linearGradient id="paint2_linear_21_9" x1="256.448" y1="914.687" x2="-1689.86" y2="-386.141" gradientUnits="userSpaceOnUse">
<stop stop-color="#0B0E14"/>
<stop offset="1" stop-color="#E4E6E9"/>
</linearGradient>
</defs>
</svg>
